External Loads File
version=1
nRows=46
nColumns=13
Range=5.000000e-03-10 seconds
endheader
time 	forceRightX 	forceRightY 	forceRightZ 	pointRightX 	pointRightY 	pointRightZ 	forceLeftX 	forceLeftY 	forceLeftZ 	pointLeftX 	pointLeftY 	pointLeftZ 		
2.505000 -118.730022 1029.002284 -0.000000 0.379804 0.264265 -0.106311 110.456095 -127.762107 -0.000000 0.098120 0.375324 -0.344138
2.510000 -99.011063 1014.924424 -0.000000 0.378633 0.256806 -0.106219 104.612878 -129.071170 -0.000000 0.101341 0.382699 -0.344160
2.515000 -80.059358 996.364846 -0.000000 0.376955 0.249396 -0.105853 98.391062 -130.000379 -0.000000 0.104892 0.389852 -0.344256
2.520000 -61.987685 973.797222 -0.000000 0.374970 0.242122 -0.105491 91.722191 -130.769437 -0.000000 0.108710 0.397011 -0.344199
2.525000 -45.496077 947.742528 -0.000000 0.372696 0.235068 -0.105056 84.538505 -131.534244 -0.000000 0.112887 0.403972 -0.344090
2.530000 -29.926647 918.906764 -0.000000 0.370004 0.228121 -0.104692 76.547654 -132.494404 -0.000000 0.117190 0.410916 -0.344054
2.535000 -14.693727 888.081982 -0.000000 0.366939 0.221265 -0.104299 67.486764 -133.661676 -0.000000 0.121874 0.417901 -0.343894
2.540000 -0.933358 856.169490 -0.000000 0.363505 0.214446 -0.103630 57.456349 -134.701140 -0.000000 0.126778 0.424432 -0.343758
2.545000 12.196541 824.265837 -0.000000 0.359596 0.207868 -0.103069 46.427867 -135.245052 -0.000000 0.131917 0.430870 -0.343848
2.550000 25.059903 793.554761 -0.000000 0.355207 0.201631 -0.102692 34.605800 -134.755721 -0.000000 0.137522 0.437128 -0.343479
2.555000 37.119727 765.265813 -0.000000 0.350472 0.195719 -0.102517 22.466610 -132.590412 -0.000000 0.143238 0.443190 -0.344123
2.560000 47.585127 740.538734 -0.000000 0.345382 0.190165 -0.102305 10.554964 -128.068168 -0.000000 0.148434 0.449108 -0.343639
2.565000 60.913646 719.820003 -0.000000 0.339902 0.184736 -0.102181 -1.561262 -120.481729 -0.000000 0.155272 0.454765 -0.344913
2.570000 72.470528 703.717758 -0.000000 0.334032 0.179740 -0.102107 -12.818096 -109.032745 -0.000000 0.160990 0.460553 -0.344208
2.575000 85.499506 691.728396 -0.000000 0.327880 0.175100 -0.102100 -23.499957 -93.162045 -0.000000 0.167597 0.465938 -0.343957
2.580000 97.969606 683.357189 -0.000000 0.321328 0.170809 -0.102096 -33.088796 -72.742278 -0.000000 0.173824 0.470641 -0.343895
2.585000 111.542257 677.246399 -0.000000 0.314640 0.166947 -0.102177 -41.607938 -48.011535 -0.000000 0.180573 0.475002 -0.343925
2.590000 125.679321 671.974286 -0.000000 0.307762 0.163199 -0.102312 -48.813279 -19.791140 -0.000000 0.187289 0.479114 -0.344286
2.595000 140.692315 665.761171 -0.000000 0.300629 0.160251 -0.102417 -54.570328 10.694248 -0.000000 0.194437 0.482764 -0.344427
2.600000 155.518837 657.043347 -0.000000 0.293317 0.157559 -0.102529 -58.850232 41.832896 -0.000000 0.201298 0.486189 -0.344594
2.605000 170.202830 644.148677 -0.000000 0.285830 0.155294 -0.102667 -61.799331 72.074105 -0.000000 0.208074 0.489496 -0.344907
2.610000 184.212455 625.735841 -0.000000 0.278314 0.153400 -0.102749 -63.725850 100.073630 -0.000000 0.214865 0.492347 -0.345095
2.615000 196.725655 600.828961 -0.000000 0.270736 0.151882 -0.102691 -65.127949 124.909966 -0.000000 0.221315 0.495014 -0.345473
2.620000 208.345781 568.287247 -0.000000 0.262974 0.150854 -0.102726 -66.258368 146.339348 -0.000000 0.227928 0.497221 -0.345693
2.625000 218.027705 527.822365 -0.000000 0.255318 0.150265 -0.102752 -67.650769 164.454102 -0.000000 0.234558 0.498792 -0.346066
2.630000 225.475208 479.313656 -0.000000 0.247615 0.149980 -0.102849 -69.614252 179.926686 -0.000000 0.240995 0.500014 -0.346354
2.635000 230.575964 422.994120 -0.000000 0.239902 0.150169 -0.102743 -72.233959 193.925822 -0.000000 0.247411 0.500784 -0.346659
2.640000 232.675528 359.867355 -0.000000 0.232276 0.150798 -0.102597 -75.693750 207.824704 -0.000000 0.253557 0.501277 -0.347105
2.645000 231.874954 291.035249 -0.000000 0.224667 0.151967 -0.102563 -79.765474 223.131787 -0.000000 0.259536 0.501185 -0.347673
2.650000 228.130989 218.109486 -0.000000 0.217059 0.153517 -0.102571 -84.228632 241.128415 -0.000000 0.265431 0.500758 -0.347580
2.655000 221.265482 143.343265 -0.000000 0.209723 0.155507 -0.102518 -89.196437 262.678972 -0.000000 0.271172 0.499909 -0.347930
2.660000 211.499535 69.095008 -0.000000 0.202585 0.157846 -0.102575 -94.767134 288.327442 -0.000000 0.276648 0.498495 -0.348143
2.665000 199.167078 -2.102562 -0.000000 0.195712 0.160434 -0.102594 -101.242226 318.179430 -0.000000 0.281919 0.496534 -0.348492
2.670000 184.781591 -67.803763 -0.000000 0.189060 0.163305 -0.102622 -109.009076 351.909613 -0.000000 0.287074 0.494274 -0.348822
2.675000 168.884757 -126.064851 -0.000000 0.182464 0.166531 -0.102685 -118.014415 388.922803 -0.000000 0.292245 0.491049 -0.348928
2.680000 152.347110 -174.999185 -0.000000 0.175909 0.169945 -0.102817 -128.959158 428.037606 -0.000000 0.297292 0.487450 -0.349052
2.685000 135.876729 -213.699423 -0.000000 0.169451 0.173992 -0.102836 -141.524867 468.154773 -0.000000 0.302501 0.483310 -0.349155
2.690000 120.569838 -241.525638 -0.000000 0.163095 0.178176 -0.102887 -156.193189 507.880370 -0.000000 0.307665 0.478683 -0.349240
2.695000 107.000527 -258.703341 -0.000000 0.156648 0.182850 -0.102798 -172.263597 546.300676 -0.000000 0.312770 0.473575 -0.349440
2.700000 95.932891 -265.776102 -0.000000 0.150500 0.187867 -0.102815 -189.559375 582.588785 -0.000000 0.317990 0.467936 -0.349365
2.705000 87.925126 -263.775038 -0.000000 0.144528 0.193272 -0.102849 -207.806733 616.227177 -0.000000 0.322985 0.461875 -0.349603
2.710000 82.831241 -254.253993 -0.000000 0.138774 0.198973 -0.102860 -225.676414 647.300468 -0.000000 0.327827 0.454805 -0.350038
2.715000 81.205500 -238.682241 -0.000000 0.133262 0.205064 -0.102869 -244.276115 675.219601 -0.000000 0.332574 0.448357 -0.350136
2.720000 82.473175 -218.862968 -0.000000 0.128070 0.211457 -0.102869 -262.709704 700.183828 -0.000000 0.337334 0.442006 -0.349553
2.725000 85.899227 -196.498480 -0.000000 0.123214 0.218115 -0.102843 -279.919310 722.609321 -0.000000 0.341766 0.434899 -0.349277
2.730000 90.877265 -173.066974 -0.000000 0.118735 0.225110 -0.102814 -295.345162 742.913963 -0.000000 0.346029 0.427224 -0.349430
